# xmcd
#
# Track frame offsets:
#	150
#	15144
#	28937
#	43564
#	61891
#	77800
#	88009
#	103131
#	117602
#	136706
#	149995
#
# Disc length: 2196 seconds
#
# Revision: 0
# Processed by: cddbd v1.5.2PL0 Copyright (c) Steve Scherf et al.
# Submitted via: audiograbber 1.83.01
#
DISCID=9508920b
DTITLE=Bert David Newton - Bert David Newton Live
DYEAR=2011
DGENRE=Country
TTITLE0=Keep My Wheels A Turnin'
TTITLE1=Nothin' To Lose
TTITLE2=Easy For The Takin'
TTITLE3=This Time
TTITLE4=Jester Of Life
TTITLE5=Ladies Love Outlaws
TTITLE6=Clydesdales
TTITLE7=Brand New Goodbye Song
TTITLE8=Lonesome, Onry And Mean
TTITLE9=Honky Tonk Princess
TTITLE10=Rainy Day Woman
EXTD=
EXTT0=
EXTT1=
EXTT2=
EXTT3=
EXTT4=
EXTT5=
EXTT6=
EXTT7=
EXTT8=
EXTT9=
EXTT10=
PLAYORDER=
